{"glyphs":{"0":{"ha":1051,"x_min":-64,"x_max":1088,"o":"m 512 -24 q 105 122 274 -24 q -64 475 -64 267 q 105 828 -64 682 q 512 973 274 973 q 919 828 749 973 q 1088 475 1088 682 q 919 122 1088 267 q 512 -24 749 -24 m 474 320 q 625 373 563 320 q 687 500 687 427 q 625 626 687 573 q 474 680 563 680 q 322 626 385 680 q 260 500 260 573 q 322 373 260 427 q 474 320 385 320 z "},"1":{"ha":1051,"x_min":139,"x_max":909,"o":"m 304 161 l 362 633 l 214 573 l 139 889 l 675 1054 l 778 195 l 858 200 l 909 -85 l 213 -26 l 227 155 l 304 161 z "},"2":{"ha":1051,"x_min":60,"x_max":1065,"o":"m 795 326 l 790 365 l 915 386 l 1065 -178 l 863 -151 l 856 -98 l 61 -16 q 60 39 60 12 q 296 624 60 613 q 528 683 528 635 q 527 690 528 686 q 268 737 513 737 q 219 736 245 737 l 204 668 l 122 673 l 98 1174 l 310 1160 l 295 1090 q 942 749 911 1034 q 945 686 945 716 q 730 424 945 454 q 513 322 513 393 q 515 305 513 314 l 795 326 z "},"3":{"ha":1051,"x_min":76,"x_max":947,"o":"m 239 658 l 231 614 l 170 612 l 125 1042 l 313 1047 l 303 993 q 427 996 368 996 q 935 786 888 996 q 938 738 938 761 q 735 490 938 557 q 916 366 878 447 q 947 252 947 302 q 945 227 947 239 q 281 -78 901 -13 l 290 -125 l 76 -153 l 118 348 l 201 365 l 212 305 q 327 304 275 304 q 585 334 585 304 q 531 355 585 355 q 388 359 493 355 l 373 632 q 583 686 583 634 l 583 688 q 531 707 583 707 q 239 658 450 707 z "},"4":{"ha":1051,"x_min":19,"x_max":1008,"o":"m 470 583 l 495 724 l 457 728 l 399 589 l 470 583 m 372 24 l 415 279 l 19 332 l 387 1048 l 793 1067 l 793 564 l 1008 558 l 943 212 l 802 227 l 808 98 l 907 115 l 886 -120 l 260 -106 l 284 9 l 372 24 z "},"5":{"ha":1051,"x_min":26,"x_max":1083,"o":"m 867 1088 l 883 1183 l 1083 1200 l 881 597 l 791 616 l 798 656 l 481 680 q 479 663 479 671 q 696 561 479 591 q 911 298 911 531 q 908 236 911 269 q 263 -105 878 -50 l 269 -146 l 109 -186 l 135 299 l 203 299 l 211 248 l 234 248 q 493 296 479 248 q 494 302 494 298 q 262 361 494 350 q 26 946 26 372 q 27 1001 26 973 l 867 1088 z "},"6":{"ha":1051,"x_min":64,"x_max":994,"o":"m 506 295 q 602 353 602 295 q 506 410 602 410 q 410 353 410 410 q 506 295 410 295 m 546 886 q 454 652 466 760 q 655 675 566 675 q 994 368 977 675 q 994 340 994 353 q 476 -18 994 -18 q 460 -18 468 -18 q 64 483 64 -14 q 176 999 64 663 l 117 1017 l 162 1221 l 680 970 l 610 866 l 546 886 z "},"7":{"ha":1051,"x_min":1,"x_max":981,"o":"m 710 336 l 582 -58 l 68 108 l 252 408 l 182 419 l 183 536 l 336 547 l 399 649 l 106 610 l 1 970 l 940 1046 l 788 578 l 981 591 l 889 309 l 710 336 z "},"8":{"ha":1051,"x_min":122,"x_max":937,"o":"m 494 762 q 454 747 469 762 q 438 713 438 732 q 454 680 438 695 q 494 665 469 665 q 535 680 519 665 q 551 713 551 695 q 535 747 551 732 q 494 762 519 762 m 511 421 q 410 395 449 421 q 372 340 372 369 q 410 286 372 312 q 511 259 449 259 q 613 286 574 259 q 652 340 652 312 q 613 395 652 369 q 511 421 574 421 m 789 553 q 815 534 789 553 q 937 311 937 442 q 817 89 937 180 q 530 -2 696 -2 q 242 89 362 -2 q 122 311 122 180 q 244 534 122 442 l 256 544 q 199 707 199 600 q 293 906 199 825 q 519 987 387 987 q 744 906 650 987 q 838 707 838 825 q 789 553 838 606 z "},"9":{"ha":1051,"x_min":27,"x_max":1015,"o":"m 516 642 q 420 585 420 642 q 516 527 420 527 q 612 585 612 527 q 516 642 612 642 m 489 102 q 567 286 562 198 q 366 262 455 262 q 28 570 44 262 q 27 597 27 584 q 545 956 27 956 l 562 956 q 958 454 958 951 q 908 41 958 279 l 1015 26 l 909 -186 l 374 21 l 387 117 l 489 102 z "},"\u0000":{"ha":0,"x_min":0,"x_max":0,"o":""}," ":{"ha":408,"x_min":0,"x_max":0,"o":""},"!":{"ha":576,"x_min":6,"x_max":546,"o":"m 94 429 l 28 1075 l 546 1137 l 366 410 l 94 429 m 186 -3 q 47 75 100 12 q 6 181 6 125 q 9 210 6 195 q 91 325 21 284 q 203 355 142 355 q 248 351 224 355 q 386 274 334 336 q 427 168 427 224 q 425 138 427 153 q 342 24 412 64 q 231 -7 291 -7 q 186 -3 209 -7 z "},"\"":{"ha":743,"x_min":-59,"x_max":748,"o":"m 262 1130 l 330 580 l 87 540 l -59 960 l 262 1130 m 748 981 l 656 514 l 366 583 l 353 1051 l 748 981 z "},"#":{"ha":1104,"x_min":-14,"x_max":1091,"o":"m 103 437 l 96 553 l -3 565 l -14 692 l 87 699 l 63 1076 l 416 1127 l 403 721 l 621 736 l 627 1141 l 1021 1063 l 981 762 l 1091 770 l 1032 445 l 940 456 l 927 354 l 990 348 l 978 207 l 907 210 l 870 -73 l 606 -56 l 611 220 l 387 229 l 378 -42 l 134 -56 l 115 239 l 22 242 l 4 447 l 103 437 m 396 519 l 393 408 l 614 386 l 616 493 l 396 519 z "},"$":{"ha":907,"x_min":10,"x_max":901,"o":"m 614 1017 l 593 1092 l 755 1141 l 809 628 l 727 631 l 716 669 l 688 669 q 429 621 442 669 q 428 614 428 618 q 660 555 428 566 q 901 243 901 544 l 901 229 q 547 -71 897 5 l 559 -191 l 470 -219 l 450 -87 q 229 -106 350 -102 l 240 -162 l 73 -181 l 35 301 l 141 306 l 151 257 q 315 248 250 248 q 441 275 429 248 q 443 283 443 279 q 224 356 443 325 q 10 618 10 385 q 14 681 10 648 q 286 949 33 861 l 249 1198 l 401 1249 l 436 990 q 614 1017 517 1006 z "},"%":{"ha":920,"x_min":-12,"x_max":928,"o":"m 882 907 l 336 -34 l -12 199 l 592 976 l 882 907 m 159 587 q 46 633 92 587 q -1 746 -1 680 q 46 859 -1 812 q 159 905 92 905 q 271 859 224 905 q 318 746 318 812 q 271 633 318 680 q 159 587 224 587 m 769 44 q 656 91 703 44 q 610 203 610 138 q 656 316 610 269 q 769 363 703 363 q 882 316 835 363 q 928 203 928 269 q 882 91 928 138 q 769 44 835 44 z "},"&":{"ha":747,"x_min":-55,"x_max":730,"o":"m 476 682 l 730 715 l 670 315 l 470 315 l 470 155 l 189 113 l 183 315 l -20 315 l -55 588 l 161 630 l 150 833 l 492 891 l 476 682 z "},"'":{"ha":392,"x_min":-32,"x_max":398,"o":"m 398 981 l 292 502 l 20 520 l -32 933 l 398 981 z "},"(":{"ha":709,"x_min":7,"x_max":737,"o":"m 9 427 q 7 497 7 463 q 570 1164 7 1112 l 635 854 l 625 854 q 402 545 402 854 q 403 515 402 530 q 699 188 414 188 q 737 189 718 188 l 680 -195 q 580 -199 628 -199 q 9 427 40 -199 z "},")":{"ha":725,"x_min":-43,"x_max":686,"o":"m 685 427 q 114 -199 654 -199 q 14 -195 66 -199 l -43 189 q -5 188 -23 188 q 292 515 280 188 l 292 546 q 70 854 292 854 l 59 854 l 123 1164 q 686 498 686 1112 q 685 427 686 463 z "},"*":{"ha":683,"x_min":-66,"x_max":680,"o":"m 420 468 l 420 271 l 308 247 l 277 519 l 98 419 l 54 475 l 191 594 l -66 736 l 44 892 l 251 743 l 218 1021 l 418 1068 l 419 791 l 600 946 l 680 743 l 437 608 l 633 466 l 606 365 l 420 468 z "},"+":{"ha":701,"x_min":-33,"x_max":692,"o":"m 489 634 l 692 634 l 692 315 l 489 315 l 489 112 l 170 112 l 170 315 l -33 315 l -33 634 l 170 634 l 170 838 l 489 838 l 489 634 z "},",":{"ha":362,"x_min":-92,"x_max":310,"o":"m 307 248 l 310 -202 l -92 -229 l 47 273 l 307 248 z "},"-":{"ha":705,"x_min":-62,"x_max":695,"o":"m 695 682 l 634 288 l -24 355 l -62 633 l 695 682 z "},".":{"ha":473,"x_min":28,"x_max":421,"o":"m 292 -9 q 210 -26 250 -26 q 121 -7 175 -26 q 40 80 68 12 q 28 141 28 111 q 55 234 28 179 q 157 319 81 288 q 239 336 199 336 q 328 317 274 336 q 409 231 381 298 q 421 170 421 200 q 394 77 421 132 q 292 -9 368 22 z "},"/":{"ha":774,"x_min":-64,"x_max":834,"o":"m 834 993 l 254 -172 l -64 71 l 568 1116 l 834 993 z "},":":{"ha":323,"x_min":-6,"x_max":313,"o":"m 153 112 q 41 159 87 112 q -6 271 -6 205 q 41 384 -6 337 q 153 431 87 431 q 266 384 219 431 q 313 271 313 337 q 266 159 313 205 q 153 112 219 112 m 151 507 q 52 549 93 507 q 10 648 10 590 q 52 747 10 706 q 151 789 93 789 q 250 747 209 789 q 292 648 292 706 q 250 549 292 590 q 151 507 209 507 z "},";":{"ha":394,"x_min":-56,"x_max":350,"o":"m 342 423 l 345 -27 l -56 -54 l 82 448 l 342 423 m 210 507 q 110 549 151 507 q 68 648 68 590 q 110 747 68 706 q 210 789 151 789 q 309 747 267 789 q 350 648 350 706 q 309 549 350 590 q 210 507 267 507 z "},"<":{"ha":731,"x_min":-83,"x_max":736,"o":"m 525 1009 l 736 671 l 435 460 l 679 357 l 562 31 l -83 393 l 525 1009 z "},"=":{"ha":774,"x_min":13,"x_max":778,"o":"m 778 893 l 648 507 l 54 536 l 15 836 l 778 893 m 710 409 l 687 77 l 13 113 l 86 454 l 710 409 z "},">":{"ha":732,"x_min":-41,"x_max":778,"o":"m 778 393 l 134 31 l 16 357 l 260 460 l -41 671 l 170 1009 l 778 393 z "},"?":{"ha":847,"x_min":-111,"x_max":834,"o":"m 418 -35 q 342 -46 379 -46 q 233 -22 294 -46 q 149 72 172 3 q 141 117 141 95 q 179 217 141 162 q 306 297 217 272 q 382 308 345 308 q 491 283 429 308 q 576 190 553 259 q 583 144 583 167 q 545 44 583 100 q 418 -35 507 -11 m 51 1033 q 464 1145 300 1145 q 598 1121 540 1145 q 831 791 803 1035 q 834 743 834 766 q 485 437 834 496 l 507 378 l 149 334 l 130 610 q 563 765 563 662 q 557 791 563 777 q 462 835 535 835 q 113 730 349 835 l 123 685 l 47 647 l -111 1005 l 45 1063 l 51 1033 z "},"@":{"ha":1167,"x_min":-20,"x_max":1145,"o":"m 570 256 q 414 219 519 219 q 264 273 315 219 q 229 363 229 309 q 235 414 229 387 q 392 644 267 545 q 665 743 517 743 q 895 678 742 743 q 779 460 793 497 q 742 398 764 423 q 838 454 789 398 q 907 594 886 511 q 919 661 919 631 q 884 741 919 711 q 721 789 829 789 q 402 676 545 789 q 216 390 259 562 q 208 326 208 355 q 244 221 208 263 q 496 159 297 159 q 503 160 500 159 q 969 270 709 161 l 1044 92 q 466 -28 743 -28 q 363 -24 414 -28 q 53 91 158 -24 q -20 283 -20 171 q -7 387 -20 332 q 275 805 56 637 q 769 972 494 972 q 1074 872 972 972 q 1145 696 1145 802 q 1133 601 1145 652 q 968 336 1096 455 q 675 219 842 219 l 669 219 q 570 256 593 226 m 625 591 q 534 525 586 577 q 467 410 483 472 q 466 400 466 404 q 469 395 466 395 q 526 418 498 395 q 576 485 555 441 q 625 591 598 530 z "},"A":{"ha":1096,"x_min":-64,"x_max":1128,"o":"m 583 452 l 536 600 l 482 436 l 583 452 m 1025 271 l 1088 311 l 1128 130 l 705 -111 l 650 37 l 692 63 l 655 163 l 399 115 l 359 -8 l 387 -22 l 349 -118 l -64 9 l -6 172 l 31 153 l 385 972 l 671 992 l 1025 271 z "},"B":{"ha":976,"x_min":34,"x_max":989,"o":"m 342 645 q 503 728 503 675 l 503 730 q 450 762 502 762 q 337 743 408 762 l 342 645 m 376 238 q 638 321 637 249 q 397 388 638 388 l 368 388 l 376 238 m 34 -22 l 60 895 q 509 1003 327 1003 q 771 910 676 1003 q 865 730 865 817 q 754 547 865 635 q 989 321 989 475 q 951 185 989 260 q 281 -31 842 -31 q 34 -22 167 -31 z "},"C":{"ha":1064,"x_min":-9,"x_max":1090,"o":"m 628 683 q 620 692 624 688 q 484 749 563 749 q 347 691 404 749 q 290 552 290 633 q 347 413 290 471 q 484 355 404 355 q 501 354 492 354 q 791 469 627 354 l 1001 138 q 520 -24 739 -24 q 145 134 300 -24 q -9 515 -9 292 q 145 896 -9 739 q 520 1054 300 1054 q 895 896 739 1054 q 958 817 929 861 l 1027 845 l 1090 631 l 590 546 l 562 656 l 628 683 z "},"D":{"ha":1013,"x_min":26,"x_max":1000,"o":"m 71 -24 l 26 973 q 1000 475 1000 973 q 71 -24 1000 -24 m 363 674 l 401 393 l 406 393 q 651 533 651 393 q 363 674 651 674 z "},"E":{"ha":884,"x_min":20,"x_max":879,"o":"m 647 1078 l 638 1137 l 799 1186 l 806 659 l 716 635 l 709 683 l 360 646 l 363 610 l 602 638 l 614 361 l 378 338 l 380 303 l 703 328 l 707 393 l 808 409 l 879 -71 l 676 -111 l 682 -22 l 20 -50 l 81 970 l 647 1078 z "},"F":{"ha":817,"x_min":7,"x_max":802,"o":"m 698 741 l 340 677 l 353 632 l 623 682 l 661 350 l 410 308 l 468 24 l 86 -27 l 7 909 l 651 1064 l 642 1127 l 783 1167 l 802 722 l 703 706 l 698 741 z "},"G":{"ha":1025,"x_min":-20,"x_max":985,"o":"m 521 676 q 452 688 489 688 q 322 635 376 688 q 269 509 269 583 q 268 493 268 500 q 319 359 268 405 q 447 315 368 315 q 510 319 457 315 q 616 372 562 322 l 475 362 l 484 517 l 968 547 l 985 -8 l 595 -120 l 601 -13 q 487 -24 564 -24 q 129 122 277 -24 q -20 475 -20 268 q 129 827 -20 682 q 487 973 277 973 q 747 904 631 973 l 812 970 l 935 838 l 544 574 l 480 635 l 521 676 z "},"H":{"ha":1134,"x_min":7,"x_max":1152,"o":"m 1070 181 l 1140 197 l 1152 12 l 543 -54 l 547 61 l 594 72 l 591 288 l 376 312 l 342 -22 l 7 122 l 122 854 l 58 868 l 83 1002 l 469 868 l 455 781 l 429 787 l 412 634 l 587 615 l 583 823 l 916 921 l 1070 181 z "},"I":{"ha":584,"x_min":-29,"x_max":570,"o":"m 113 807 l 28 798 l 22 959 l 530 1057 l 548 853 l 466 844 l 492 175 l 570 195 l 555 -68 l 22 -111 l -29 45 l 83 73 l 113 807 z "},"J":{"ha":952,"x_min":-48,"x_max":922,"o":"m 542 835 l 467 821 l 422 974 l 905 1028 l 922 906 l 883 899 q 907 597 907 734 q 445 -24 907 1 q 20 361 74 -24 l -29 346 l -48 532 l 401 597 l 404 480 l 367 469 q 441 295 372 295 q 567 573 567 328 q 542 835 567 683 z "},"K":{"ha":979,"x_min":-6,"x_max":1046,"o":"m 487 955 l 446 964 l 526 1134 l 1046 967 l 966 845 l 913 857 l 605 481 l 972 252 l 616 -33 l 387 252 l 409 125 l 441 132 l 455 16 l -1 -117 l -6 45 l 54 56 l 54 976 l 315 947 l 341 681 l 487 955 z "},"L":{"ha":771,"x_min":27,"x_max":795,"o":"m 562 -59 l 27 -22 l 76 988 l 460 968 l 400 341 l 605 349 l 612 414 l 795 421 l 661 -115 l 558 -92 l 562 -59 z "},"M":{"ha":1317,"x_min":-49,"x_max":1326,"o":"m 1243 103 l 1322 119 l 1326 10 l 799 -117 l 813 20 l 853 28 l 840 372 l 614 128 l 408 338 l 425 39 l 470 33 l 458 -107 l -49 -9 l -18 104 l 41 96 l 101 970 l 452 1017 l 613 597 l 801 1000 l 1188 972 l 1243 103 z "},"N":{"ha":1179,"x_min":13,"x_max":1208,"o":"m 464 176 l 496 181 l 519 50 l 48 -96 l 13 97 l 85 109 l 23 910 l 398 975 l 700 576 l 669 858 l 595 863 l 572 988 l 1208 1063 l 1166 823 l 1105 827 l 1019 -21 l 718 -65 l 431 368 l 464 176 z "},"O":{"ha":1145,"x_min":-21,"x_max":1131,"o":"m 555 -24 q 148 122 317 -24 q -21 475 -21 267 q 148 828 -21 682 q 555 973 317 973 q 962 828 793 973 q 1131 475 1131 682 q 962 122 1131 267 q 555 -24 793 -24 m 517 320 q 668 373 606 320 q 730 500 730 427 q 668 626 730 573 q 517 680 606 680 q 366 626 428 680 q 304 500 304 573 q 366 373 304 427 q 517 320 428 320 z "},"P":{"ha":1027,"x_min":13,"x_max":1010,"o":"m 342 656 l 368 566 q 671 631 671 566 q 670 637 671 633 q 553 678 661 678 q 342 656 474 678 m 79 39 l 13 928 q 426 966 247 966 q 1010 612 974 966 q 441 250 1010 250 l 435 250 l 460 158 l 532 180 l 614 -55 l 47 -132 l 41 28 l 79 39 z "},"Q":{"ha":1184,"x_min":-20,"x_max":1230,"o":"m 605 387 q 632 413 605 387 q 658 514 658 439 q 605 641 658 589 q 478 694 553 694 q 351 641 404 694 q 298 514 298 589 q 351 387 298 439 q 478 334 404 334 q 605 387 553 334 m 1099 317 l 1230 279 l 930 -92 l 848 45 q 553 -24 730 -24 q 148 122 317 -24 q -20 475 -20 267 q 148 828 -20 682 q 553 973 317 973 q 958 828 789 973 q 1126 475 1126 682 q 1099 317 1126 376 z "},"R":{"ha":1105,"x_min":16,"x_max":1130,"o":"m 399 699 l 406 566 q 699 610 699 566 q 399 699 699 657 m 678 -113 l 429 195 l 445 35 l 16 -26 l 98 1040 q 1047 668 1015 972 q 1050 612 1050 639 q 782 266 1050 355 l 931 185 l 972 233 l 1130 142 l 702 -231 l 636 -162 l 678 -113 z "},"S":{"ha":907,"x_min":14,"x_max":904,"o":"m 618 1017 l 596 1092 l 758 1141 l 812 628 l 730 631 l 720 669 l 691 669 q 433 621 446 669 q 431 614 431 618 q 663 555 431 566 q 904 243 904 544 l 904 229 q 232 -106 898 -80 l 243 -162 l 76 -181 l 39 301 l 144 306 l 155 257 q 319 248 254 248 q 445 275 432 248 q 446 283 446 279 q 227 356 446 325 q 14 618 14 385 q 18 681 14 648 q 618 1017 46 955 z "},"T":{"ha":1016,"x_min":-35,"x_max":1036,"o":"m 111 673 l 110 620 l 25 614 l -35 1024 l 115 1046 l 115 979 l 855 1023 l 862 1078 l 1036 1081 l 875 536 l 795 552 l 804 617 l 625 634 l 658 64 l 239 -43 l 303 656 l 111 673 z "},"U":{"ha":1112,"x_min":15,"x_max":1102,"o":"m 68 851 l 15 859 l 50 1028 l 539 889 l 511 786 l 479 791 q 412 452 412 574 q 518 295 412 298 q 686 559 686 296 q 662 798 686 660 l 636 791 l 608 903 l 1062 1116 l 1102 911 l 1040 895 q 1058 632 1058 753 q 517 -24 1058 -17 q 20 489 20 -19 q 68 851 20 646 z "},"V":{"ha":1137,"x_min":-61,"x_max":1160,"o":"m 29 669 l -19 628 l -61 722 l 320 1118 l 379 964 l 353 942 l 525 484 l 628 857 l 579 878 l 595 972 l 1160 857 l 1071 673 l 1023 692 l 686 11 l 378 -26 l 29 669 z "},"W":{"ha":1753,"x_min":-61,"x_max":1771,"o":"m 83 657 l 24 616 l -61 777 l 433 1059 l 480 935 l 432 901 l 591 475 l 855 892 l 1135 493 l 1260 928 l 1211 965 l 1240 1092 l 1771 788 l 1680 610 l 1630 647 l 1282 -27 l 947 45 l 864 317 l 746 -22 l 446 -61 l 83 657 z "},"X":{"ha":1057,"x_min":-62,"x_max":1096,"o":"m 85 738 l 39 706 l -62 828 l 366 1044 l 411 967 l 374 941 l 507 745 l 668 981 l 1039 760 l 699 471 l 937 205 l 990 237 l 1096 80 l 661 -92 l 589 -3 l 634 24 l 505 203 l 353 -29 l 24 94 l 325 473 l 85 738 z "},"Y":{"ha":1125,"x_min":-69,"x_max":1182,"o":"m 85 698 l 32 659 l -69 770 l 378 1078 l 444 967 l 397 932 l 538 726 l 645 962 l 585 993 l 632 1118 l 1182 924 l 1055 753 l 1000 781 l 702 399 l 732 -1 l 351 50 l 382 398 l 85 698 z "},"Z":{"ha":1025,"x_min":-7,"x_max":1046,"o":"m 133 654 l 103 581 l -7 600 l 106 1119 l 300 1067 l 275 1005 l 989 882 l 600 313 l 845 335 l 855 402 l 1046 397 l 869 -127 l 780 -96 l 786 -56 l -5 78 l 477 654 l 133 654 z "},"[":{"ha":663,"x_min":34,"x_max":629,"o":"m 566 1164 l 515 773 l 355 792 l 386 205 l 588 205 l 629 -159 l 105 -159 l 34 1112 l 566 1164 z "},"\\":{"ha":937,"x_min":34,"x_max":903,"o":"m 275 1114 l 903 59 l 589 -172 l 34 1021 l 275 1114 z "},"]":{"ha":663,"x_min":34,"x_max":629,"o":"m 629 1112 l 557 -159 l 34 -159 l 75 205 l 277 205 l 307 792 l 148 773 l 96 1164 l 629 1112 z "},"^":{"ha":829,"x_min":34,"x_max":795,"o":"m 795 755 l 465 577 l 410 716 l 356 583 l 34 660 l 382 1180 l 795 755 z "},"_":{"ha":972,"x_min":34,"x_max":939,"o":"m 939 336 l 916 -54 l 87 -39 l 34 294 l 939 336 z "},"a":{"ha":1096,"x_min":-64,"x_max":1128,"o":"m 583 452 l 536 600 l 482 436 l 583 452 m 1025 271 l 1088 311 l 1128 130 l 705 -111 l 650 37 l 692 63 l 655 163 l 399 115 l 359 -8 l 387 -22 l 349 -118 l -64 9 l -6 172 l 31 153 l 385 972 l 671 992 l 1025 271 z "},"b":{"ha":976,"x_min":34,"x_max":989,"o":"m 342 645 q 503 728 503 675 l 503 730 q 450 762 502 762 q 337 743 408 762 l 342 645 m 376 238 q 638 321 637 249 q 397 388 638 388 l 368 388 l 376 238 m 34 -22 l 60 895 q 509 1003 327 1003 q 771 910 676 1003 q 865 730 865 817 q 754 547 865 635 q 989 321 989 475 q 951 185 989 260 q 281 -31 842 -31 q 34 -22 167 -31 z "},"c":{"ha":1064,"x_min":-9,"x_max":1090,"o":"m 628 683 q 620 692 624 688 q 484 749 563 749 q 347 691 404 749 q 290 552 290 633 q 347 413 290 471 q 484 355 404 355 q 501 354 492 354 q 791 469 627 354 l 1001 138 q 520 -24 739 -24 q 145 134 300 -24 q -9 515 -9 292 q 145 896 -9 739 q 520 1054 300 1054 q 895 896 739 1054 q 958 817 929 861 l 1027 845 l 1090 631 l 590 546 l 562 656 l 628 683 z "},"d":{"ha":1013,"x_min":26,"x_max":1000,"o":"m 71 -24 l 26 973 q 1000 475 1000 973 q 71 -24 1000 -24 m 363 674 l 401 393 l 406 393 q 651 533 651 393 q 363 674 651 674 z "},"e":{"ha":884,"x_min":20,"x_max":879,"o":"m 647 1078 l 638 1137 l 799 1186 l 806 659 l 716 635 l 709 683 l 360 646 l 363 610 l 602 638 l 614 361 l 378 338 l 380 303 l 703 328 l 707 393 l 808 409 l 879 -71 l 676 -111 l 682 -22 l 20 -50 l 81 970 l 647 1078 z "},"f":{"ha":817,"x_min":7,"x_max":802,"o":"m 698 741 l 340 677 l 353 632 l 623 682 l 661 350 l 410 308 l 468 24 l 86 -27 l 7 909 l 651 1064 l 642 1127 l 783 1167 l 802 722 l 703 706 l 698 741 z "},"g":{"ha":1025,"x_min":-20,"x_max":985,"o":"m 521 676 q 452 688 489 688 q 322 635 376 688 q 269 509 269 583 q 268 493 268 500 q 319 359 268 405 q 447 315 368 315 q 510 319 457 315 q 616 372 562 322 l 475 362 l 484 517 l 968 547 l 985 -8 l 595 -120 l 601 -13 q 487 -24 564 -24 q 129 122 277 -24 q -20 475 -20 268 q 129 827 -20 682 q 487 973 277 973 q 747 904 631 973 l 812 970 l 935 838 l 544 574 l 480 635 l 521 676 z "},"h":{"ha":1134,"x_min":7,"x_max":1152,"o":"m 1070 181 l 1140 197 l 1152 12 l 543 -54 l 547 61 l 594 72 l 591 288 l 376 312 l 342 -22 l 7 122 l 122 854 l 58 868 l 83 1002 l 469 868 l 455 781 l 429 787 l 412 634 l 587 615 l 583 823 l 916 921 l 1070 181 z "},"i":{"ha":584,"x_min":-29,"x_max":570,"o":"m 113 807 l 28 798 l 22 959 l 530 1057 l 548 853 l 466 844 l 492 175 l 570 195 l 555 -68 l 22 -111 l -29 45 l 83 73 l 113 807 m 294 1053 q 227 1046 259 1046 q 99 1078 167 1046 q 15 1188 32 1111 q 11 1223 11 1206 q 62 1343 11 1281 q 213 1427 114 1405 q 279 1434 248 1434 q 407 1402 340 1434 q 492 1292 475 1369 q 496 1257 496 1274 q 444 1137 496 1199 q 294 1053 393 1075 z "},"j":{"ha":952,"x_min":-48,"x_max":922,"o":"m 542 835 l 467 821 l 422 974 l 905 1028 l 922 906 l 883 899 q 907 597 907 734 q 445 -24 907 1 q 20 361 74 -24 l -29 346 l -48 532 l 401 597 l 404 480 l 367 469 q 441 295 372 295 q 567 573 567 328 q 542 835 567 683 z "},"k":{"ha":979,"x_min":-6,"x_max":1046,"o":"m 487 955 l 446 964 l 526 1134 l 1046 967 l 966 845 l 913 857 l 605 481 l 972 252 l 616 -33 l 387 252 l 409 125 l 441 132 l 455 16 l -1 -117 l -6 45 l 54 56 l 54 976 l 315 947 l 341 681 l 487 955 z "},"l":{"ha":771,"x_min":27,"x_max":795,"o":"m 562 -59 l 27 -22 l 76 988 l 460 968 l 400 341 l 605 349 l 612 414 l 795 421 l 661 -115 l 558 -92 l 562 -59 z "},"m":{"ha":1317,"x_min":-49,"x_max":1326,"o":"m 1243 103 l 1322 119 l 1326 10 l 799 -117 l 813 20 l 853 28 l 840 372 l 614 128 l 408 338 l 425 39 l 470 33 l 458 -107 l -49 -9 l -18 104 l 41 96 l 101 970 l 452 1017 l 613 597 l 801 1000 l 1188 972 l 1243 103 z "},"n":{"ha":1179,"x_min":13,"x_max":1208,"o":"m 464 176 l 496 181 l 519 50 l 48 -96 l 13 97 l 85 109 l 23 910 l 398 975 l 700 576 l 669 858 l 595 863 l 572 988 l 1208 1063 l 1166 823 l 1105 827 l 1019 -21 l 718 -65 l 431 368 l 464 176 z "},"o":{"ha":1145,"x_min":-21,"x_max":1131,"o":"m 555 -24 q 148 122 317 -24 q -21 475 -21 267 q 148 828 -21 682 q 555 973 317 973 q 962 828 793 973 q 1131 475 1131 682 q 962 122 1131 267 q 555 -24 793 -24 m 517 320 q 668 373 606 320 q 730 500 730 427 q 668 626 730 573 q 517 680 606 680 q 366 626 428 680 q 304 500 304 573 q 366 373 304 427 q 517 320 428 320 z "},"p":{"ha":1027,"x_min":13,"x_max":1010,"o":"m 342 656 l 368 566 q 671 631 671 566 q 670 637 671 633 q 553 678 661 678 q 342 656 474 678 m 79 39 l 13 928 q 426 966 247 966 q 1010 612 974 966 q 441 250 1010 250 l 435 250 l 460 158 l 532 180 l 614 -55 l 47 -132 l 41 28 l 79 39 z "},"q":{"ha":1184,"x_min":-20,"x_max":1230,"o":"m 605 387 q 632 413 605 387 q 658 514 658 439 q 605 641 658 589 q 478 694 553 694 q 351 641 404 694 q 298 514 298 589 q 351 387 298 439 q 478 334 404 334 q 605 387 553 334 m 1099 317 l 1230 279 l 930 -92 l 848 45 q 553 -24 730 -24 q 148 122 317 -24 q -20 475 -20 267 q 148 828 -20 682 q 553 973 317 973 q 958 828 789 973 q 1126 475 1126 682 q 1099 317 1126 376 z "},"r":{"ha":1105,"x_min":16,"x_max":1130,"o":"m 399 699 l 406 566 q 699 610 699 566 q 399 699 699 657 m 678 -113 l 429 195 l 445 35 l 16 -26 l 98 1040 q 1047 668 1015 972 q 1050 612 1050 639 q 782 266 1050 355 l 931 185 l 972 233 l 1130 142 l 702 -231 l 636 -162 l 678 -113 z "},"s":{"ha":907,"x_min":14,"x_max":904,"o":"m 618 1017 l 596 1092 l 758 1141 l 812 628 l 730 631 l 720 669 l 691 669 q 433 621 446 669 q 431 614 431 618 q 663 555 431 566 q 904 243 904 544 l 904 229 q 232 -106 898 -80 l 243 -162 l 76 -181 l 39 301 l 144 306 l 155 257 q 319 248 254 248 q 445 275 432 248 q 446 283 446 279 q 227 356 446 325 q 14 618 14 385 q 18 681 14 648 q 618 1017 46 955 z "},"t":{"ha":1016,"x_min":-35,"x_max":1036,"o":"m 111 673 l 110 620 l 25 614 l -35 1024 l 115 1046 l 115 979 l 855 1023 l 862 1078 l 1036 1081 l 875 536 l 795 552 l 804 617 l 625 634 l 658 64 l 239 -43 l 303 656 l 111 673 z "},"u":{"ha":1112,"x_min":15,"x_max":1102,"o":"m 68 851 l 15 859 l 50 1028 l 539 889 l 511 786 l 479 791 q 412 452 412 574 q 518 295 412 298 q 686 559 686 296 q 662 798 686 660 l 636 791 l 608 903 l 1062 1116 l 1102 911 l 1040 895 q 1058 632 1058 753 q 517 -24 1058 -17 q 20 489 20 -19 q 68 851 20 646 z "},"v":{"ha":1137,"x_min":-61,"x_max":1160,"o":"m 29 669 l -19 628 l -61 722 l 320 1118 l 379 964 l 353 942 l 525 484 l 628 857 l 579 878 l 595 972 l 1160 857 l 1071 673 l 1023 692 l 686 11 l 378 -26 l 29 669 z "},"w":{"ha":1753,"x_min":-61,"x_max":1771,"o":"m 83 657 l 24 616 l -61 777 l 433 1059 l 480 935 l 432 901 l 591 475 l 855 892 l 1135 493 l 1260 928 l 1211 965 l 1240 1092 l 1771 788 l 1680 610 l 1630 647 l 1282 -27 l 947 45 l 864 317 l 746 -22 l 446 -61 l 83 657 z "},"x":{"ha":1057,"x_min":-62,"x_max":1096,"o":"m 85 738 l 39 706 l -62 828 l 366 1044 l 411 967 l 374 941 l 507 745 l 668 981 l 1039 760 l 699 471 l 937 205 l 990 237 l 1096 80 l 661 -92 l 589 -3 l 634 24 l 505 203 l 353 -29 l 24 94 l 325 473 l 85 738 z "},"y":{"ha":1125,"x_min":-69,"x_max":1182,"o":"m 85 698 l 32 659 l -69 770 l 378 1078 l 444 967 l 397 932 l 538 726 l 645 962 l 585 993 l 632 1118 l 1182 924 l 1055 753 l 1000 781 l 702 399 l 732 -1 l 351 50 l 382 398 l 85 698 z "},"z":{"ha":1025,"x_min":-7,"x_max":1046,"o":"m 133 654 l 103 581 l -7 600 l 106 1119 l 300 1067 l 275 1005 l 989 882 l 600 313 l 845 335 l 855 402 l 1046 397 l 869 -127 l 780 -96 l 786 -56 l -5 78 l 477 654 l 133 654 z "},"{":{"ha":821,"x_min":34,"x_max":787,"o":"m 199 656 q 696 1112 258 1109 l 738 798 q 533 492 533 798 q 534 481 533 487 q 787 159 537 165 l 681 -163 q 197 330 258 -159 l 34 350 l 87 707 l 199 656 z "},"|":{"ha":465,"x_min":34,"x_max":431,"o":"m 431 1114 l 376 -144 l 98 -174 l 34 1067 l 431 1114 z "},"}":{"ha":821,"x_min":34,"x_max":787,"o":"m 733 707 l 787 350 l 623 330 q 140 -163 562 -159 l 34 159 q 288 481 283 165 l 288 492 q 83 798 288 798 l 124 1112 q 621 656 562 1109 l 733 707 z "},"~":{"ha":962,"x_min":34,"x_max":928,"o":"m 142 261 l 34 574 q 372 662 241 662 q 478 642 433 662 q 556 627 514 627 q 848 754 676 627 l 928 369 q 597 254 726 254 q 490 279 536 254 q 351 315 427 315 q 142 261 256 315 z "},"£":{"ha":1062,"x_min":34,"x_max":1028,"o":"m 178 639 q 574 995 231 972 q 619 996 597 996 q 1018 707 923 996 l 730 526 q 596 654 659 654 q 511 597 533 654 l 602 573 l 558 297 l 483 313 l 483 254 l 979 351 l 1028 -22 l 164 -95 l 168 348 l 34 368 l 95 656 l 178 639 z "},"¥":{"ha":1133,"x_min":34,"x_max":1099,"o":"m 690 106 l 688 19 l 372 -27 l 372 109 l 195 83 l 126 487 l 335 444 l 34 806 l 354 981 l 532 720 l 707 976 l 1099 890 l 722 435 l 943 453 l 849 73 l 690 106 z "},"‘":{"ha":498,"x_min":-32,"x_max":398,"o":"m 398 981 l 292 502 l 20 520 l -32 933 l 398 981 z "},"’":{"ha":498,"x_min":-32,"x_max":398,"o":"m 398 981 l 292 502 l 20 520 l -32 933 l 398 981 z "},"“":{"ha":766,"x_min":-35,"x_max":772,"o":"m 286 1130 l 354 580 l 111 540 l -35 960 l 286 1130 m 772 981 l 680 514 l 390 583 l 377 1051 l 772 981 z "},"”":{"ha":766,"x_min":-35,"x_max":772,"o":"m 286 1130 l 354 580 l 111 540 l -35 960 l 286 1130 m 772 981 l 680 514 l 390 583 l 377 1051 l 772 981 z "},"•":{"ha":387,"x_min":34,"x_max":353,"o":"m 193 315 q 81 362 127 315 q 34 475 34 409 q 81 587 34 541 q 193 634 127 634 q 306 587 259 634 q 353 475 353 541 q 306 362 353 409 q 193 315 259 315 z "},"…":{"ha":1200,"x_min":34,"x_max":1166,"o":"m 1007 -24 q 895 23 941 -24 q 848 136 848 70 q 895 248 848 201 q 1007 295 941 295 q 1120 248 1073 295 q 1166 136 1166 201 q 1120 23 1166 70 q 1007 -24 1073 -24 m 600 -24 q 488 23 534 -24 q 441 136 441 70 q 488 248 441 201 q 600 295 534 295 q 713 248 666 295 q 760 136 760 201 q 713 23 760 70 q 600 -24 666 -24 m 193 -24 q 81 23 127 -24 q 34 136 34 70 q 81 248 34 201 q 193 295 127 295 q 306 248 259 295 q 353 136 353 201 q 306 23 353 70 q 193 -24 259 -24 z "},"€":{"ha":991,"x_min":-52,"x_max":989,"o":"m 518 408 q 354 378 354 378 q 481 325 407 325 q 608 378 555 325 q 659 467 637 406 l 987 305 q 869 122 943 195 q 517 -24 724 -24 q 164 122 311 -24 q 43 313 72 215 l -12 304 l -52 632 l 43 640 q 164 827 72 735 q 517 973 311 973 q 869 827 724 973 q 989 641 943 754 l 659 541 q 608 631 639 600 q 481 684 555 684 q 354 632 407 684 l 483 640 l 518 408 z "},"™":{"ha":890,"x_min":34,"x_max":856,"o":"m 356 829 l 290 829 l 317 621 l 118 602 l 140 829 l 34 829 l 34 972 l 389 1004 l 391 973 l 571 1006 l 600 844 l 639 946 l 806 978 l 856 641 l 665 577 l 671 731 l 584 625 l 510 711 l 519 576 l 328 648 l 356 829 z "},"−":{"ha":798,"x_min":34,"x_max":764,"o":"m 732 650 l 764 317 l 66 254 l 34 633 l 732 650 z "}}}
